<svg width="140" height="140" viewBox="0 0 140 140" fill="none" xmlns="http://www.w3.org/2000/svg">
<circle cx="70" cy="70" r="70" fill="#EFF3FA"/>
<rect x="42.293" y="43.2256" width="54.7388" height="54.7388" rx="7" stroke="#1C1F23" stroke-width="1.5" stroke-linecap="round" stroke-dasharray="6 6"/>
<rect x="26.293" y="27.6592" width="32" height="32" rx="16" fill="white"/>
<circle cx="42.2926" cy="39.8278" r="4.278" fill="#B1B9CA"/>
<path d="M49.4672 51.7674C49.8609 51.7674 50.1835 51.4476 50.148 51.0554C50.0762 50.2637 49.885 49.486 49.5798 48.749C49.1834 47.792 48.6024 46.9225 47.8699 46.1901C47.1375 45.4577 46.268 44.8767 45.311 44.4803C44.3541 44.0839 43.3284 43.8799 42.2926 43.8799C41.2568 43.8799 40.2311 44.0839 39.2742 44.4803C38.3172 44.8767 37.4477 45.4577 36.7153 46.1901C35.9828 46.9225 35.4018 47.792 35.0055 48.749C34.7002 49.486 34.509 50.2637 34.4373 51.0554C34.4017 51.4476 34.7243 51.7674 35.118 51.7674L42.2926 51.7674H49.4672Z" fill="#B1B9CA"/>
<rect x="81.707" y="27.6592" width="32" height="32" rx="16" fill="white"/>
<circle cx="97.7067" cy="39.8278" r="4.278" fill="#B1B9CA"/>
<path d="M104.881 51.7674C105.275 51.7674 105.598 51.4476 105.562 51.0554C105.49 50.2637 105.299 49.486 104.994 48.749C104.597 47.792 104.016 46.9225 103.284 46.1901C102.552 45.4577 101.682 44.8767 100.725 44.4803C99.7681 44.0839 98.7425 43.8799 97.7067 43.8799C96.6709 43.8799 95.6452 44.0839 94.6882 44.4803C93.7313 44.8767 92.8617 45.4577 92.1293 46.1901C91.3969 46.9225 90.8159 47.792 90.4195 48.749C90.1143 49.486 89.9231 50.2637 89.8513 51.0554C89.8158 51.4476 90.1383 51.7674 90.5321 51.7674L97.7067 51.7674H104.881Z" fill="#B1B9CA"/>
<rect x="26.293" y="80.3389" width="32" height="32" rx="16" fill="white"/>
<circle cx="42.2926" cy="92.5075" r="4.278" fill="#B1B9CA"/>
<path d="M49.4672 104.447C49.8609 104.447 50.1835 104.127 50.148 103.735C50.0762 102.943 49.885 102.166 49.5798 101.429C49.1834 100.472 48.6024 99.6022 47.8699 98.8698C47.1375 98.1374 46.268 97.5564 45.311 97.16C44.3541 96.7636 43.3284 96.5596 42.2926 96.5596C41.2568 96.5596 40.2311 96.7636 39.2742 97.16C38.3172 97.5564 37.4477 98.1374 36.7153 98.8698C35.9828 99.6022 35.4018 100.472 35.0055 101.429C34.7002 102.166 34.509 102.943 34.4373 103.735C34.4017 104.127 34.7243 104.447 35.118 104.447L42.2926 104.447H49.4672Z" fill="#B1B9CA"/>
<rect x="81.0317" y="80.3389" width="32" height="32" rx="16" fill="white"/>
<circle cx="97.0314" cy="92.5075" r="4.278" fill="#005DFF"/>
<path d="M104.206 104.447C104.6 104.447 104.922 104.127 104.887 103.735C104.815 102.943 104.624 102.166 104.319 101.429C103.922 100.472 103.341 99.6022 102.609 98.8698C101.876 98.1374 101.007 97.5564 100.05 97.16C99.0928 96.7636 98.0672 96.5596 97.0314 96.5596C95.9956 96.5596 94.9699 96.7636 94.0129 97.16C93.056 97.5564 92.1865 98.1374 91.454 98.8698C90.7216 99.6022 90.1406 100.472 89.7442 101.429C89.439 102.166 89.2478 102.943 89.176 103.735C89.1405 104.127 89.463 104.447 89.8568 104.447L97.0314 104.447H104.206Z" fill="#005DFF"/>
</svg>
